<?xml version="1.0" standalone="no"?>
<!DOCTYPE svg PUBLIC "-//W3C//DTD SVG 20010904//EN"
 "http://www.w3.org/TR/2001/REC-SVG-20010904/DTD/svg10.dtd">
<svg version="1.0" xmlns="http://www.w3.org/2000/svg"
 width="409.000000pt" height="610.000000pt" viewBox="0 0 409.000000 610.000000"
 preserveAspectRatio="xMidYMid meet">

<g transform="translate(0.000000,610.000000) scale(0.100000,-0.100000)"
fill="#000000" stroke="none">
<path d="M1870 4874 c-14 -2 -59 -9 -100 -15 -177 -25 -399 -97 -580 -190
-448 -228 -798 -662 -936 -1158 -53 -192 -66 -307 -61 -546 4 -170 10 -243 26
-320 88 -420 308 -796 620 -1057 269 -224 558 -360 905 -425 113 -21 460 -24
581 -4 177 28 408 102 566 181 458 231 824 678 953 1164 53 195 60 257 60 501
0 198 -3 245 -22 340 -71 358 -207 637 -438 905 -258 299 -619 505 -1044 597
-95 21 -148 25 -310 28 -107 2 -206 2 -220 -1z m1490 -1069 c0 -2 -34 -37 -75
-77 -72 -71 -80 -82 -240 -387 l-165 -315 0 -173 c0 -171 0 -173 -22 -177 -13
-2 -57 -10 -98 -16 -41 -7 -85 -14 -97 -17 l-23 -5 0 181 0 181 -93 147 c-247
392 -225 362 -302 412 l-70 45 80 12 c44 7 122 20 173 29 50 9 96 14 100 11 4
-2 57 -88 117 -190 61 -102 112 -185 115 -186 3 0 57 105 121 233 l117 232
168 31 c189 35 194 36 194 29z m-1490 -600 l0 -476 38 7 c20 3 69 12 107 19
39 7 113 21 165 30 129 23 250 45 278 51 22 4 22 3 22 -110 l0 -115 -37 -6
c-21 -4 -72 -13 -113 -20 -41 -8 -192 -35 -335 -60 -143 -25 -282 -49 -310
-54 -27 -5 -52 -8 -54 -6 -2 2 -4 90 -5 194 -1 184 -2 191 -21 191 -31 0 -318
-51 -335 -59 -12 -7 -16 -35 -18 -143 l-3 -134 -171 -155 c-95 -85 -197 -177
-228 -206 -30 -28 -56 -50 -58 -48 -2 2 49 98 112 214 l116 210 0 378 0 377
-46 43 c-49 45 -49 47 21 57 60 9 200 34 230 42 l25 6 0 -311 c0 -181 4 -311
9 -311 5 0 46 54 91 120 53 78 88 122 103 125 12 3 53 10 91 15 38 6 74 13 79
17 5 3 8 55 7 117 -1 61 -2 147 -1 192 l1 81 110 101 c61 56 115 102 120 102
6 0 10 -169 10 -475z m514 -96 c37 -55 66 -102 64 -104 -2 -1 -70 -15 -153
-29 -82 -15 -172 -32 -198 -37 -82 -16 -77 -22 -77 104 l0 114 138 25 c75 14
142 26 148 27 6 1 41 -44 78 -100z m186 -677 c25 -21 36 -85 21 -124 -15 -38
-62 -65 -143 -79 l-68 -12 0 -44 c0 -45 -1 -46 -53 -57 l-28 -7 3 153 3 152
85 17 c114 22 153 23 180 1z m-408 -66 c26 -19 38 -60 38 -127 0 -74 -20 -123
-57 -142 -15 -8 -68 -22 -117 -32 -72 -13 -95 -14 -118 -4 -41 17 -48 36 -48
132 0 122 24 149 154 172 92 17 127 17 148 1z m-374 -78 c-3 -31 -6 -33 -58
-43 l-55 -10 -5 -114 -5 -115 -29 -7 c-16 -5 -33 -6 -38 -3 -4 3 -8 55 -8 116
l0 110 -37 -7 c-21 -3 -48 -9 -60 -12 -21 -5 -23 -1 -23 30 0 40 -1 39 125 57
44 6 96 15 115 19 71 18 82 15 78 -21z"/>
<path d="M2445 2374 c-11 -3 -30 -7 -42 -10 -19 -4 -23 -11 -23 -44 l0 -40 48
7 c70 9 84 19 80 56 -3 33 -18 40 -63 31z"/>
<path d="M2010 2299 c-25 -5 -51 -16 -57 -26 -18 -24 -17 -127 1 -142 18 -15
129 4 146 24 6 8 10 43 8 82 -3 65 -4 68 -28 70 -14 0 -45 -3 -70 -8z"/>
</g>
</svg>
